<svg width="246" height="80" viewBox="0 0 246 80" fill="none" xmlns="http://www.w3.org/2000/svg">
<path d="M59.368 43.072H58.912C58.912 42.32 59.136 40.88 59.584 38.752C60.048 36.624 60.28 35.416 60.28 35.128C60.28 34.6 60.056 34.04 59.608 33.448L59.392 33.16L59.416 32.848C60.28 32.608 61.664 32.488 63.568 32.488C63.776 32.76 63.888 33.256 63.904 33.976C65.296 32.904 66.472 32.368 67.432 32.368C68.008 32.368 68.464 32.568 68.8 32.968C69.152 33.368 69.328 33.872 69.328 34.48C69.328 35.072 69.144 36.104 68.776 37.576C68.408 39.048 68.224 40.04 68.224 40.552C68.224 41.048 68.288 41.296 68.416 41.296C68.512 41.296 68.848 41.144 69.424 40.84L69.712 40.696L70.144 41.536C70 41.664 69.808 41.824 69.568 42.016C69.328 42.208 68.88 42.472 68.224 42.808C67.584 43.128 67.008 43.288 66.496 43.288C65.328 43.288 64.744 42.624 64.744 41.296C64.744 40.736 64.92 39.704 65.272 38.2C65.64 36.696 65.824 35.728 65.824 35.296C65.824 34.864 65.688 34.648 65.416 34.648C64.952 34.648 64.384 34.848 63.712 35.248C63.664 35.52 63.504 36.24 63.232 37.408C62.672 39.92 62.392 41.696 62.392 42.736C61.832 42.96 60.824 43.072 59.368 43.072ZM74.2675 43.288C73.1635 43.288 72.2995 42.904 71.6755 42.136C71.0515 41.352 70.7395 40.264 70.7395 38.872C70.7395 37.096 71.2115 35.568 72.1555 34.288C73.1155 33.008 74.4355 32.368 76.1155 32.368L76.9795 32.416C77.2515 32.272 77.5555 32.2 77.8915 32.2C79.1555 32.2 79.7875 33.392 79.7875 35.776C80.4435 35.744 81.1075 35.656 81.7795 35.512L82.1635 35.416L82.3075 36.352C81.7795 36.576 81.0675 36.776 80.1715 36.952L79.6915 37.048C79.3875 38.728 78.7715 40.192 77.8435 41.44C76.9155 42.672 75.7235 43.288 74.2675 43.288ZM75.5635 41.224C76.2355 41.224 76.8355 40.792 77.3635 39.928C77.9075 39.064 78.2835 38.152 78.4915 37.192C76.7795 37.192 75.9235 36.552 75.9235 35.272C75.9235 34.76 76.0275 34.28 76.2355 33.832L76.3555 33.592C76.2915 33.56 76.2115 33.544 76.1155 33.544C76.0195 33.544 75.9475 33.56 75.8995 33.592C75.4995 33.848 75.1235 34.448 74.7715 35.392C74.4195 36.336 74.2435 37.416 74.2435 38.632C74.2435 40.36 74.6835 41.224 75.5635 41.224ZM88.2398 32.656C88.2078 33.056 88.0718 33.52 87.8318 34.048C87.2238 33.984 86.6478 33.952 86.1038 33.952H85.6718C84.9358 37.52 84.5678 39.744 84.5678 40.624C84.5678 41.088 84.6638 41.32 84.8558 41.32C85.0638 41.32 85.5998 41.12 86.4638 40.72L86.8958 41.512C85.4718 42.696 84.1518 43.288 82.9358 43.288C82.3758 43.288 81.9118 43.112 81.5438 42.76C81.1918 42.408 81.0158 41.944 81.0158 41.368C81.0158 40.776 81.0798 40.112 81.2078 39.376C81.3518 38.64 81.5438 37.744 81.7838 36.688C82.0238 35.616 82.1998 34.752 82.3118 34.096C81.7198 34.144 81.2798 34.192 80.9918 34.24C80.9598 34.048 80.9438 33.792 80.9438 33.472C80.9438 33.136 80.9678 32.864 81.0158 32.656H82.5278C82.6558 31.792 82.7198 30.976 82.7198 30.208L82.6958 29.464V29.392C83.9438 28.96 85.1198 28.744 86.2238 28.744C86.2878 29.064 86.3198 29.464 86.3198 29.944C86.3198 30.424 86.1838 31.328 85.9118 32.656H88.2398ZM99.7626 33.064C99.7946 33.032 99.8826 32.824 100.027 32.44C100.779 32.44 101.787 32.664 103.051 33.112C102.651 34.44 102.331 35.832 102.091 37.288C101.851 38.728 101.731 39.76 101.731 40.384C101.731 40.992 101.795 41.296 101.923 41.296C102.019 41.296 102.371 41.144 102.979 40.84L103.267 40.696L103.699 41.536C103.555 41.664 103.363 41.824 103.123 42.016C102.899 42.208 102.467 42.472 101.827 42.808C101.187 43.128 100.611 43.288 100.099 43.288C99.1066 43.288 98.5306 42.84 98.3706 41.944C97.3466 42.84 96.4186 43.288 95.5866 43.288C94.7706 43.288 94.0746 42.968 93.4986 42.328C92.9386 41.688 92.6586 40.68 92.6586 39.304C92.6586 37.16 93.0986 35.472 93.9786 34.24C94.8586 32.992 95.9226 32.368 97.1706 32.368C98.0666 32.368 98.9306 32.6 99.7626 33.064ZM97.0266 41.248C97.4106 41.248 97.8426 41.096 98.3226 40.792C98.4346 38.536 98.8106 36.304 99.4506 34.096C98.9706 33.888 98.5626 33.784 98.2266 33.784C97.6506 33.784 97.1546 34.352 96.7386 35.488C96.3386 36.608 96.1386 37.848 96.1386 39.208C96.1386 40.568 96.4346 41.248 97.0266 41.248ZM109.427 43.072H109.259C109.227 42.944 109.211 42.656 109.211 42.208C109.211 41.744 109.427 40.512 109.859 38.512C110.291 36.512 110.507 35.368 110.507 35.08C110.507 34.584 110.283 34.04 109.835 33.448L109.619 33.16L109.643 32.848C110.507 32.608 111.891 32.488 113.795 32.488C113.987 32.904 114.083 33.488 114.083 34.24C114.259 33.952 114.627 33.568 115.187 33.088C115.747 32.608 116.323 32.368 116.915 32.368C117.779 32.368 118.211 33.12 118.211 34.624C118.131 34.72 118.019 34.848 117.875 35.008C117.747 35.152 117.475 35.36 117.059 35.632C116.659 35.904 116.267 36.072 115.883 36.136C115.867 36.136 115.731 35.92 115.475 35.488C115.219 35.056 115.027 34.84 114.899 34.84C114.499 34.984 114.147 35.224 113.843 35.56C113.107 38.872 112.739 41.016 112.739 41.992C112.739 42.344 112.747 42.592 112.763 42.736C112.203 42.96 111.091 43.072 109.427 43.072ZM117.593 38.848C117.593 36.848 118.193 35.272 119.393 34.12C120.609 32.952 121.985 32.368 123.521 32.368C124.465 32.368 125.241 32.6 125.849 33.064C126.457 33.528 126.761 34.152 126.761 34.936C126.761 35.704 126.561 36.352 126.161 36.88C125.777 37.408 125.305 37.816 124.745 38.104C123.609 38.664 122.569 39.016 121.625 39.16L121.049 39.232C121.161 40.736 121.777 41.488 122.897 41.488C123.281 41.488 123.689 41.392 124.121 41.2C124.553 41.008 124.889 40.816 125.129 40.624L125.489 40.336L126.065 41.104C125.937 41.28 125.681 41.512 125.297 41.8C124.913 42.088 124.553 42.328 124.217 42.52C123.289 43.032 122.273 43.288 121.169 43.288C120.065 43.288 119.193 42.896 118.553 42.112C117.913 41.328 117.593 40.24 117.593 38.848ZM121.025 38.056C121.841 37.912 122.489 37.568 122.969 37.024C123.449 36.48 123.689 35.776 123.689 34.912C123.689 34.048 123.433 33.616 122.921 33.616C122.313 33.616 121.841 34.136 121.505 35.176C121.185 36.2 121.025 37.16 121.025 38.056ZM134.427 33.064C134.459 33.032 134.547 32.824 134.691 32.44C135.443 32.44 136.451 32.664 137.715 33.112C137.315 34.44 136.995 35.832 136.755 37.288C136.515 38.728 136.395 39.76 136.395 40.384C136.395 40.992 136.459 41.296 136.587 41.296C136.683 41.296 137.035 41.144 137.643 40.84L137.931 40.696L138.363 41.536C138.219 41.664 138.027 41.824 137.787 42.016C137.563 42.208 137.131 42.472 136.491 42.808C135.851 43.128 135.275 43.288 134.763 43.288C133.771 43.288 133.195 42.84 133.035 41.944C132.011 42.84 131.083 43.288 130.251 43.288C129.435 43.288 128.739 42.968 128.163 42.328C127.603 41.688 127.323 40.68 127.323 39.304C127.323 37.16 127.763 35.472 128.643 34.24C129.523 32.992 130.587 32.368 131.835 32.368C132.731 32.368 133.595 32.6 134.427 33.064ZM131.691 41.248C132.075 41.248 132.507 41.096 132.987 40.792C133.099 38.536 133.475 36.304 134.115 34.096C133.635 33.888 133.227 33.784 132.891 33.784C132.315 33.784 131.819 34.352 131.403 35.488C131.003 36.608 130.803 37.848 130.803 39.208C130.803 40.568 131.099 41.248 131.691 41.248ZM140.654 43.288C140.11 43.288 139.654 43.104 139.286 42.736C138.934 42.368 138.758 41.856 138.758 41.2C138.758 40.528 139.15 38.408 139.934 34.84C140.734 31.256 141.134 28.672 141.134 27.088L140.99 26.032C142.238 25.6 143.406 25.384 144.494 25.384C144.654 25.608 144.734 26 144.734 26.56C144.734 27.84 144.326 30.32 143.51 34C142.71 37.664 142.31 39.8 142.31 40.408C142.31 41 142.382 41.296 142.526 41.296L144.206 40.696L144.638 41.536C144.094 41.968 143.43 42.368 142.646 42.736C141.878 43.104 141.214 43.288 140.654 43.288Z" fill="white"/>
<path d="M65.876 61.636C65.3533 61.636 64.9707 61.6267 64.728 61.608C63.9813 65.0053 63.608 67.2827 63.608 68.44C62.5627 68.9253 61.1907 69.168 59.492 69.168C59.0253 69.168 58.5773 69.14 58.148 69.084C58.148 67.908 58.6613 65.1827 59.688 60.908C60.7147 56.6147 61.228 53.9547 61.228 52.928C61.228 52.6107 61.116 52.2467 60.892 51.836C60.6867 51.4253 60.472 51.0987 60.248 50.856L59.94 50.464L60.052 49.792C60.7613 49.6613 61.956 49.5213 63.636 49.372C65.3347 49.204 66.8933 49.12 68.312 49.12C70.4027 49.12 71.952 49.5493 72.96 50.408C73.968 51.2667 74.472 52.424 74.472 53.88C74.472 56.1387 73.744 57.996 72.288 59.452C70.8507 60.908 68.7133 61.636 65.876 61.636ZM65.82 59.228C66.8653 59.228 67.668 58.6307 68.228 57.436C68.8067 56.2413 69.096 54.804 69.096 53.124C69.096 51.7613 68.648 51.08 67.752 51.08L66.856 51.192C66.856 51.92 66.3333 54.5987 65.288 59.228H65.82ZM73.8842 63.932C73.8842 61.6173 74.5842 59.816 75.9842 58.528C77.4029 57.24 79.1482 56.596 81.2202 56.596C82.6576 56.596 83.8056 56.9133 84.6642 57.548C85.5416 58.164 85.9802 58.9947 85.9802 60.04C85.9802 60.8053 85.7469 61.4867 85.2802 62.084C84.8136 62.6813 84.2442 63.1387 83.5722 63.456C82.1536 64.0907 80.9216 64.4733 79.8762 64.604L79.1762 64.688C79.3816 65.92 79.9976 66.536 81.0242 66.536C81.4722 66.536 81.9669 66.4427 82.5082 66.256C83.0496 66.0507 83.4789 65.8453 83.7962 65.64L84.2722 65.36L85.1682 66.564C85.1682 66.564 85.0656 66.6667 84.8602 66.872C84.7482 66.984 84.4776 67.208 84.0482 67.544C83.6376 67.8613 83.1989 68.1413 82.7322 68.384C82.2842 68.6267 81.7056 68.8413 80.9962 69.028C80.2869 69.2333 79.5776 69.336 78.8682 69.336C77.2816 69.336 76.0496 68.8787 75.1722 67.964C74.3136 67.0307 73.8842 65.6867 73.8842 63.932ZM79.0642 62.84C79.6056 62.7653 80.1469 62.3267 80.6882 61.524C81.2296 60.7027 81.5002 60.0213 81.5002 59.48C81.5002 58.92 81.3416 58.64 81.0242 58.64C80.5576 58.64 80.1282 59.004 79.7362 59.732C79.3442 60.46 79.1202 61.496 79.0642 62.84ZM86.8915 69.168H86.6675C86.6115 68.9067 86.5835 68.5053 86.5835 67.964C86.5835 67.404 86.8075 65.976 87.2555 63.68C87.7222 61.3653 87.9555 60.0587 87.9555 59.76C87.9555 59.4427 87.8715 59.1253 87.7035 58.808C87.5355 58.472 87.3675 58.22 87.1995 58.052L86.9475 57.8L87.0035 57.38C88.1235 57.0253 89.9809 56.848 92.5755 56.848C92.8182 57.3147 92.9675 57.8653 93.0235 58.5C94.1622 57.2307 95.1702 56.596 96.0475 56.596C97.1862 56.596 97.8115 57.5573 97.9235 59.48C97.8862 59.5173 97.8395 59.5827 97.7835 59.676C97.7275 59.7507 97.5969 59.8907 97.3915 60.096C97.1862 60.3013 96.9715 60.488 96.7475 60.656C96.1129 61.0853 95.4409 61.3373 94.7315 61.412C94.7129 61.412 94.5822 61.2067 94.3395 60.796C94.1155 60.3853 93.9195 60.18 93.7515 60.18C93.6022 60.18 93.3129 60.348 92.8835 60.684C92.8275 61.02 92.7155 61.5893 92.5475 62.392C92.3982 63.1947 92.2769 63.8573 92.1835 64.38C91.9035 65.7613 91.7635 66.9187 91.7635 67.852L91.7915 68.692C90.9702 69.0093 89.3369 69.168 86.8915 69.168ZM107.199 65.22C107.199 66.3773 106.657 67.3573 105.575 68.16C104.511 68.944 103.26 69.336 101.823 69.336C100.385 69.336 99.1999 69.0933 98.2665 68.608C97.3519 68.1227 96.8945 67.6653 96.8945 67.236C96.8945 66.788 97.1745 66.228 97.7345 65.556C98.3132 64.8653 98.9012 64.464 99.4985 64.352C100.357 64.8187 101.132 65.8547 101.823 67.46C102.364 67.46 102.635 67.2827 102.635 66.928C102.635 66.6667 102.56 66.424 102.411 66.2C102.261 65.976 102.149 65.7987 102.075 65.668C102 65.5373 101.869 65.36 101.683 65.136C101.496 64.8933 101.356 64.716 101.263 64.604C100.796 64.044 100.376 63.5307 100.003 63.064C99.1065 61.944 98.6585 60.964 98.6585 60.124C98.6585 59.2653 98.9292 58.5653 99.4705 58.024C100.404 57.072 101.776 56.596 103.587 56.596C104.725 56.596 105.631 56.82 106.303 57.268C106.975 57.6973 107.311 58.3507 107.311 59.228C107.311 60.0867 106.797 61.076 105.771 62.196C106.723 63.2973 107.199 64.3053 107.199 65.22ZM105.323 60.096C105.547 59.7413 105.659 59.424 105.659 59.144C105.659 58.864 105.537 58.6493 105.295 58.5C105.052 58.3507 104.763 58.276 104.427 58.276C104.091 58.276 103.829 58.36 103.643 58.528C103.475 58.6773 103.391 58.8827 103.391 59.144C103.391 59.4053 103.792 59.984 104.595 60.88C104.856 60.6933 105.099 60.432 105.323 60.096ZM112.932 69.336C111.476 69.336 110.328 68.8787 109.488 67.964C108.648 67.0307 108.228 65.724 108.228 64.044C108.228 61.9907 108.835 60.2547 110.048 58.836C111.261 57.3987 112.857 56.68 114.836 56.68L116.096 56.792C116.544 56.6613 116.964 56.596 117.356 56.596C118.289 56.596 118.952 56.9133 119.344 57.548C119.755 58.1827 119.988 59.088 120.044 60.264C120.828 60.2267 121.575 60.1053 122.284 59.9L122.676 59.788C122.807 59.9187 122.9 60.3107 122.956 60.964L122.984 61.272C122.144 61.7013 121.117 62.0373 119.904 62.28C119.493 64.2587 118.681 65.9293 117.468 67.292C116.255 68.6547 114.743 69.336 112.932 69.336ZM113.492 63.932C113.492 65.668 113.931 66.536 114.808 66.536C115.424 66.536 116.049 66.144 116.684 65.36C117.337 64.576 117.785 63.624 118.028 62.504C116.124 62.504 115.172 61.5893 115.172 59.76C115.172 59.4427 115.2 59.116 115.256 58.78C115.069 58.78 114.929 58.808 114.836 58.864C114.519 59.2 114.211 59.8813 113.912 60.908C113.632 61.916 113.492 62.924 113.492 63.932ZM121.62 69.168H121.144C121.144 68.0107 121.405 66.256 121.928 63.904C122.469 61.552 122.74 60.1987 122.74 59.844C122.74 59.4893 122.656 59.144 122.488 58.808C122.32 58.472 122.152 58.22 121.984 58.052L121.732 57.8L121.788 57.38C122.889 57.0253 124.812 56.848 127.556 56.848C127.743 57.2773 127.873 57.7253 127.948 58.192C129.647 57.1467 131.075 56.624 132.232 56.624C133.016 56.624 133.632 56.8853 134.08 57.408C134.528 57.912 134.752 58.528 134.752 59.256C134.752 59.9653 134.547 61.1133 134.136 62.7C133.725 64.2867 133.52 65.3227 133.52 65.808C133.52 66.2747 133.585 66.508 133.716 66.508L135.2 66.116L135.704 67.516C135.107 67.964 134.323 68.384 133.352 68.776C132.4 69.1493 131.523 69.336 130.72 69.336C129.133 69.336 128.34 68.5147 128.34 66.872C128.34 66.1627 128.536 65.0053 128.928 63.4C129.32 61.7947 129.516 60.796 129.516 60.404C129.516 59.9933 129.385 59.788 129.124 59.788C128.788 59.788 128.34 59.9747 127.78 60.348C127.705 60.684 127.519 61.496 127.22 62.784C126.623 65.4907 126.324 67.4413 126.324 68.636C125.409 68.9907 123.841 69.168 121.62 69.168ZM150.172 57.66C149.78 58.8733 149.444 60.32 149.164 62C148.884 63.6613 148.744 64.828 148.744 65.5C148.744 66.1533 148.847 66.48 149.052 66.48L150.452 66.088L150.956 67.488C150.359 67.9547 149.593 68.384 148.66 68.776C147.745 69.1493 146.933 69.336 146.224 69.336C145.011 69.336 144.245 68.8133 143.928 67.768C142.453 68.8133 141.147 69.336 140.008 69.336C138.888 69.336 138.02 68.9253 137.404 68.104C136.788 67.2827 136.48 66.1067 136.48 64.576C136.48 62.4667 137.021 60.6093 138.104 59.004C139.187 57.3987 140.615 56.596 142.388 56.596C143.359 56.596 144.348 56.8667 145.356 57.408C145.505 57.072 145.627 56.8293 145.72 56.68C147.064 56.68 148.548 57.0067 150.172 57.66ZM141.744 64.24C141.744 65.1733 141.809 65.7613 141.94 66.004C142.071 66.2467 142.313 66.368 142.668 66.368C143.023 66.368 143.368 66.228 143.704 65.948C143.779 63.7827 144.133 61.5147 144.768 59.144C144.488 58.976 144.161 58.892 143.788 58.892C143.433 58.892 143.107 59.0973 142.808 59.508C142.528 59.9187 142.313 60.432 142.164 61.048C141.884 62.224 141.744 63.288 141.744 64.24ZM158.943 67.432C158.346 67.9547 157.562 68.4027 156.591 68.776C155.62 69.1493 154.734 69.336 153.931 69.336C153.147 69.336 152.503 69.112 151.999 68.664C151.495 68.1973 151.243 67.5347 151.243 66.676C151.243 65.8173 151.71 63.428 152.643 59.508C153.595 55.5693 154.071 52.648 154.071 50.744C154.071 50.3333 154.015 49.8107 153.903 49.176C155.658 48.6907 157.356 48.448 158.999 48.448C159.167 48.7467 159.251 49.232 159.251 49.904C159.251 51.1733 158.775 53.9453 157.823 58.22C156.89 62.476 156.423 64.9307 156.423 65.584C156.423 66.2373 156.535 66.564 156.759 66.564C156.946 66.564 157.347 66.4427 157.963 66.2L158.271 66.06L158.943 67.432ZM166.387 58.5C166.387 59.3213 166.154 60.6 165.687 62.336C165.221 64.0533 164.987 65.1733 164.987 65.696C164.987 66.2187 165.09 66.48 165.295 66.48C165.501 66.48 165.874 66.3867 166.415 66.2L166.667 66.088L167.171 67.488C166.537 67.9733 165.743 68.4027 164.791 68.776C163.858 69.1493 163.009 69.336 162.243 69.336C161.478 69.336 160.871 69.1213 160.423 68.692C159.994 68.2627 159.779 67.6467 159.779 66.844C159.779 66.0227 160.003 64.7813 160.451 63.12C160.918 61.44 161.151 60.376 161.151 59.928C161.151 59.2373 160.909 58.584 160.423 57.968L160.199 57.66L160.283 57.184C161.254 56.8853 163.139 56.736 165.939 56.736C166.238 57.072 166.387 57.66 166.387 58.5ZM164.287 54.552C163.447 54.552 162.785 54.328 162.299 53.88C161.833 53.432 161.599 52.8627 161.599 52.172C161.599 51.4627 161.889 50.8747 162.467 50.408C163.065 49.9227 163.783 49.68 164.623 49.68C165.463 49.68 166.117 49.876 166.583 50.268C167.05 50.66 167.283 51.2107 167.283 51.92C167.283 52.6293 166.994 53.2453 166.415 53.768C165.855 54.2907 165.146 54.552 164.287 54.552ZM177.666 59.088L175.258 58.892C174.511 62.2333 174.101 64.1747 174.026 64.716C173.97 65.2573 173.942 65.7053 173.942 66.06C173.942 66.396 174.054 66.564 174.278 66.564C174.539 66.564 175.034 66.396 175.762 66.06L176.434 67.404C175.837 67.9453 175.081 68.4027 174.166 68.776C173.251 69.1493 172.365 69.336 171.506 69.336C170.666 69.336 169.994 69.1213 169.49 68.692C168.986 68.244 168.734 67.6187 168.734 66.816C168.734 66.0133 168.967 64.7253 169.434 62.952C169.901 61.1787 170.209 59.8627 170.358 59.004C169.91 59.0413 169.247 59.1067 168.37 59.2C168.295 58.808 168.258 58.444 168.258 58.108C168.258 57.7533 168.305 57.3613 168.398 56.932H170.638C170.657 56.6893 170.666 55.8773 170.666 54.496L170.61 53.348C172.421 52.7507 174.147 52.452 175.79 52.452C175.921 52.7507 175.986 53.2733 175.986 54.02C175.986 54.748 175.865 55.7187 175.622 56.932H178.142C178.142 57.6973 177.983 58.416 177.666 59.088ZM190.683 56.792H190.907C190.814 57.2773 190.655 58.3227 190.431 59.928C189.927 63.5867 189.386 66.3493 188.807 68.216C187.37 72.92 185.064 75.272 181.891 75.272C180.939 75.272 180.164 75.0667 179.567 74.656C178.988 74.264 178.699 73.7413 178.699 73.088C178.699 72.4533 178.848 71.9213 179.147 71.492C179.464 71.0813 179.912 70.736 180.491 70.456C181.48 69.9707 182.694 69.5693 184.131 69.252C184.28 68.5427 184.374 68.0853 184.411 67.88C182.955 68.664 181.574 69.056 180.267 69.056C178.475 69.056 177.579 68.1787 177.579 66.424C177.579 65.808 177.784 64.604 178.195 62.812C178.606 61.0013 178.811 59.7507 178.811 59.06C178.811 58.3693 178.764 57.856 178.671 57.52C180.874 57.0533 182.582 56.82 183.795 56.82C183.944 57.044 184.019 57.492 184.019 58.164C184.019 58.8173 183.804 60.096 183.375 62C182.964 63.904 182.759 65.024 182.759 65.36C182.759 65.9387 183.039 66.228 183.599 66.228C183.916 66.228 184.28 66.144 184.691 65.976C184.84 65.024 185.046 63.5773 185.307 61.636C185.587 59.676 185.783 58.332 185.895 57.604C186.38 57.38 187.108 57.1933 188.079 57.044C189.068 56.876 189.936 56.792 190.683 56.792ZM180.687 72.556C180.687 72.9853 180.967 73.2 181.527 73.2C181.807 73.2 182.171 73.004 182.619 72.612C183.086 72.2387 183.459 71.6787 183.739 70.932C181.704 71.2867 180.687 71.828 180.687 72.556ZM200.233 69.196H199.589C199.589 67.6467 200.028 64.8187 200.905 60.712C201.782 56.6053 202.268 54.1507 202.361 53.348C202.473 52.5267 202.538 51.9107 202.557 51.5C200.802 51.5373 199.402 51.808 198.357 52.312C197.816 51.696 197.48 50.7907 197.349 49.596C198.264 49.2787 199.832 49.12 202.053 49.12L210.873 49.4C211.302 49.4 211.984 49.3813 212.917 49.344C212.992 49.9413 213.029 50.4453 213.029 50.856C213.029 51.7333 212.478 52.172 211.377 52.172C211.041 52.172 210.509 52.116 209.781 52.004C209.072 51.892 208.446 51.8267 207.905 51.808C207.849 52.4053 207.364 54.832 206.449 59.088C205.553 63.344 205.105 66.4707 205.105 68.468C204.284 68.9533 202.66 69.196 200.233 69.196ZM211.833 63.932C211.833 61.6173 212.533 59.816 213.933 58.528C215.352 57.24 217.097 56.596 219.169 56.596C220.607 56.596 221.755 56.9133 222.613 57.548C223.491 58.164 223.929 58.9947 223.929 60.04C223.929 60.8053 223.696 61.4867 223.229 62.084C222.763 62.6813 222.193 63.1387 221.521 63.456C220.103 64.0907 218.871 64.4733 217.825 64.604L217.125 64.688C217.331 65.92 217.947 66.536 218.973 66.536C219.421 66.536 219.916 66.4427 220.457 66.256C220.999 66.0507 221.428 65.8453 221.745 65.64L222.221 65.36L223.117 66.564C223.117 66.564 223.015 66.6667 222.809 66.872C222.697 66.984 222.427 67.208 221.997 67.544C221.587 67.8613 221.148 68.1413 220.681 68.384C220.233 68.6267 219.655 68.8413 218.945 69.028C218.236 69.2333 217.527 69.336 216.817 69.336C215.231 69.336 213.999 68.8787 213.121 67.964C212.263 67.0307 211.833 65.6867 211.833 63.932ZM217.013 62.84C217.555 62.7653 218.096 62.3267 218.637 61.524C219.179 60.7027 219.449 60.0213 219.449 59.48C219.449 58.92 219.291 58.64 218.973 58.64C218.507 58.64 218.077 59.004 217.685 59.732C217.293 60.46 217.069 61.496 217.013 62.84ZM234.046 65.22C234.046 66.3773 233.505 67.3573 232.422 68.16C231.358 68.944 230.108 69.336 228.67 69.336C227.233 69.336 226.048 69.0933 225.114 68.608C224.2 68.1227 223.742 67.6653 223.742 67.236C223.742 66.788 224.022 66.228 224.582 65.556C225.161 64.8653 225.749 64.464 226.346 64.352C227.205 64.8187 227.98 65.8547 228.67 67.46C229.212 67.46 229.482 67.2827 229.482 66.928C229.482 66.6667 229.408 66.424 229.258 66.2C229.109 65.976 228.997 65.7987 228.922 65.668C228.848 65.5373 228.717 65.36 228.53 65.136C228.344 64.8933 228.204 64.716 228.11 64.604C227.644 64.044 227.224 63.5307 226.85 63.064C225.954 61.944 225.506 60.964 225.506 60.124C225.506 59.2653 225.777 58.5653 226.318 58.024C227.252 57.072 228.624 56.596 230.434 56.596C231.573 56.596 232.478 56.82 233.15 57.268C233.822 57.6973 234.158 58.3507 234.158 59.228C234.158 60.0867 233.645 61.076 232.618 62.196C233.57 63.2973 234.046 64.3053 234.046 65.22ZM232.17 60.096C232.394 59.7413 232.506 59.424 232.506 59.144C232.506 58.864 232.385 58.6493 232.142 58.5C231.9 58.3507 231.61 58.276 231.274 58.276C230.938 58.276 230.677 58.36 230.49 58.528C230.322 58.6773 230.238 58.8827 230.238 59.144C230.238 59.4053 230.64 59.984 231.442 60.88C231.704 60.6933 231.946 60.432 232.17 60.096ZM244.932 59.088L242.524 58.892C241.777 62.2333 241.366 64.1747 241.292 64.716C241.236 65.2573 241.208 65.7053 241.208 66.06C241.208 66.396 241.32 66.564 241.544 66.564C241.805 66.564 242.3 66.396 243.028 66.06L243.7 67.404C243.102 67.9453 242.346 68.4027 241.432 68.776C240.517 69.1493 239.63 69.336 238.772 69.336C237.932 69.336 237.26 69.1213 236.756 68.692C236.252 68.244 236 67.6187 236 66.816C236 66.0133 236.233 64.7253 236.7 62.952C237.166 61.1787 237.474 59.8627 237.624 59.004C237.176 59.0413 236.513 59.1067 235.636 59.2C235.561 58.808 235.524 58.444 235.524 58.108C235.524 57.7533 235.57 57.3613 235.664 56.932H237.904C237.922 56.6893 237.932 55.8773 237.932 54.496L237.876 53.348C239.686 52.7507 241.413 52.452 243.056 52.452C243.186 52.7507 243.252 53.2733 243.252 54.02C243.252 54.748 243.13 55.7187 242.888 56.932H245.408C245.408 57.6973 245.249 58.416 244.932 59.088Z" fill="white"/>
<g clip-path="url(#clip0)">
<path d="M54.6427 15.914C54.377 15.6621 48.0815 9.79153 42.3241 11.3376C40.6733 11.7798 39.1571 12.497 37.863 13.4213C38.2073 12.4318 38.5855 11.4994 39.0046 10.6619C39.0838 10.5031 39.1275 10.336 39.1378 10.1695C39.2513 10.1794 39.3592 10.2119 39.4746 10.2119C40.0752 10.2119 40.6976 10.0778 41.3044 9.80806C42.4541 9.29665 43.4729 8.34743 44.1739 7.13378C45.6582 4.5621 43.8518 1.06396 43.641 0.674171C43.4102 0.247896 42.9671 -0.0190327 42.475 0.000924609C42.0319 0.0133979 38.0997 0.197691 36.6154 2.77062C35.9144 3.98303 35.6016 5.33981 35.7338 6.59088C35.8451 7.64612 36.2786 8.55823 36.9478 9.20529C36.858 9.29759 36.7682 9.39176 36.7074 9.51338C35.5417 11.8446 34.6645 14.7621 34.0041 17.7283C33.7041 17.3491 33.3823 16.9808 33.0252 16.6363C29.7429 13.4677 23.4355 15.0378 23.1685 15.1055C22.6989 15.2258 22.3366 15.6007 22.2333 16.0734C22.1738 16.3431 20.8239 22.7011 24.1071 25.8734C26.0075 27.7076 28.3627 28.663 30.4904 28.663C31.1543 28.663 31.7863 28.5479 32.3854 28.3593C32.2326 29.9652 32.1496 31.2191 32.11 31.9142H24.375H17.9556V34.4821H23.0912V40.9018V46.0374V48.6053V52.4571V55.025V63.3768C23.0912 68.683 27.4107 73 32.7206 73C38.0305 73 42.35 68.683 42.35 63.3768V40.9021V34.4824H47.4855V31.9145H41.0658H34.6842C34.7481 30.882 34.9006 28.7896 35.2046 26.2301C35.4126 25.9027 35.5841 25.5534 35.716 25.1833C36.5118 25.971 37.5194 26.6161 38.7156 27.0764C40.0165 27.5766 41.4572 27.8285 42.9496 27.8285C44.1514 27.8285 45.3869 27.6655 46.6102 27.3371C52.3701 25.7938 54.8866 17.5649 54.9907 17.215C55.1298 16.7491 54.9951 16.2462 54.6427 15.914ZM38.8391 4.05412C39.3268 3.20906 40.7266 2.81272 41.7204 2.65493C42.0815 3.59542 42.4376 5.00584 41.9499 5.84966C41.5255 6.58558 40.9099 7.1737 40.2616 7.46089C39.9607 7.59498 39.386 7.77928 38.9195 7.50736H38.9189C38.4499 7.23669 38.322 6.64857 38.2877 6.32115C38.2129 5.6164 38.414 4.79036 38.8391 4.05412ZM25.8918 24.0248C24.3002 22.4875 24.3585 19.2466 24.6048 17.4261C26.4122 17.114 29.6434 16.9397 31.2425 18.4842C32.2223 19.4303 32.9021 20.5501 33.2423 21.6914C33.038 22.9315 32.8675 24.1358 32.7262 25.2643C32.7249 25.2659 32.724 25.2678 32.7231 25.2687C31.2743 26.7696 28.1441 26.2017 25.8918 24.0248ZM32.7206 70.4314C28.827 70.4314 25.6591 67.2666 25.6591 63.3762V55.0244H29.5109V52.4565H25.6588V48.605H29.5106V46.0371H25.6588V42.1853H39.7817V63.3762H39.782C39.782 67.2669 36.6141 70.4314 32.7206 70.4314ZM39.782 34.4821V39.6177H25.6591V34.4821H39.782ZM45.9457 24.8565C43.7214 25.4521 41.4834 25.3894 39.6364 24.6784C37.9332 24.0239 36.7884 22.8929 36.4133 21.4949C36.0385 20.097 36.4648 18.5447 37.6126 17.1268C38.8568 15.5885 40.7662 14.4135 42.9883 13.8179C43.4404 13.6975 43.9029 13.6423 44.3706 13.6423C47.5364 13.6423 50.9082 16.1298 52.2634 17.2484C51.5578 19.1378 49.4538 23.916 45.9457 24.8565Z" fill="white" stroke="white" stroke-width="0.5"/>
</g>
<defs>
<clipPath id="clip0">
<rect width="73" height="73" fill="white"/>
</clipPath>
</defs>
</svg>
