<svg width="74" height="95" viewBox="0 0 74 95" fill="none" xmlns="http://www.w3.org/2000/svg">
<path d="M74 38.0704C74 58.5438 37 95 37 95C37 95 0 58.5438 0 38.0704C0 17.597 16.5655 1 37 1C57.4345 1 74 17.597 74 38.0704Z" fill="#092730"/>
<path d="M18.976 50.888C18.184 51.368 17.788 51.836 17.788 52.292C17.788 52.748 18.04 52.976 18.544 52.976C19.072 52.976 19.66 52.724 20.308 52.22C20.956 51.74 21.496 50.948 21.928 49.844C20.776 50.06 19.792 50.408 18.976 50.888ZM17.248 47.144C15.232 47.144 14.224 46.04 14.224 43.832C14.224 43.304 14.464 41.78 14.944 39.26C15.424 36.74 15.664 34.64 15.664 32.96C15.664 32.6 15.616 32.264 15.52 31.952C16.816 31.448 18.592 31.196 20.848 31.196C20.968 31.532 21.028 32.108 21.028 32.924C21.028 33.74 20.764 35.432 20.236 38C19.708 40.568 19.444 42.224 19.444 42.968C19.444 43.712 19.756 44.084 20.38 44.084C21.124 44.084 22.024 43.712 23.08 42.968C23.2 41.552 23.68 37.82 24.52 31.772C25.36 31.436 26.872 31.268 29.056 31.268H29.74C29.284 33.068 28.84 35.66 28.408 39.044C27.976 42.428 27.628 44.78 27.364 46.1C26.86 48.74 25.924 50.888 24.556 52.544C23.212 54.224 21.448 55.064 19.264 55.064C18.4 55.064 17.608 54.836 16.888 54.38C16.192 53.924 15.844 53.336 15.844 52.616C15.844 51.656 16.432 50.78 17.608 49.988C18.784 49.196 20.368 48.584 22.36 48.152C22.576 47.096 22.744 46.076 22.864 45.092C20.92 46.46 19.048 47.144 17.248 47.144ZM35.5731 47.432C33.9171 47.432 32.6211 46.856 31.6851 45.704C30.7491 44.528 30.2811 42.896 30.2811 40.808C30.2811 38.144 30.9891 35.852 32.4051 33.932C33.8451 32.012 35.8251 31.052 38.3451 31.052L39.6411 31.124C40.0491 30.908 40.5051 30.8 41.0091 30.8C42.9051 30.8 43.8531 32.588 43.8531 36.164C44.8371 36.116 45.8331 35.984 46.8411 35.768L47.4171 35.624L47.6331 37.028C46.8411 37.364 45.7731 37.664 44.4291 37.928L43.7091 38.072C43.2531 40.592 42.3291 42.788 40.9371 44.66C39.5451 46.508 37.7571 47.432 35.5731 47.432ZM37.5171 44.336C38.5251 44.336 39.4251 43.688 40.2171 42.392C41.0331 41.096 41.5971 39.728 41.9091 38.288C39.3411 38.288 38.0571 37.328 38.0571 35.408C38.0571 34.64 38.2131 33.92 38.5251 33.248L38.7051 32.888C38.6091 32.84 38.4891 32.816 38.3451 32.816C38.2011 32.816 38.0931 32.84 38.0211 32.888C37.4211 33.272 36.8571 34.172 36.3291 35.588C35.8011 37.004 35.5371 38.624 35.5371 40.448C35.5371 43.04 36.1971 44.336 37.5171 44.336ZM45.2 44.3C45.2 43.268 45.512 41.516 46.136 39.044C46.76 36.548 47.072 35.024 47.072 34.472C47.072 33.896 46.64 33.14 45.776 32.204L45.812 31.736C47.444 31.4 49.592 31.232 52.256 31.232C52.376 31.544 52.436 32.108 52.436 32.924C52.436 33.74 52.1 35.48 51.428 38.144C50.756 40.808 50.42 42.464 50.42 43.112C50.42 43.76 50.66 44.084 51.14 44.084C51.836 44.084 52.64 43.832 53.552 43.328C53.648 42.752 53.888 41.648 54.272 40.016C55.136 36.176 55.568 33.428 55.568 31.772C56.408 31.436 57.92 31.268 60.104 31.268H60.788C60.788 32.396 60.452 34.604 59.78 37.892C59.108 41.156 58.772 43.076 58.772 43.652C58.772 44.204 58.892 44.48 59.132 44.48C59.276 44.48 59.96 44.192 61.184 43.616L61.868 44.768C59.732 46.544 57.86 47.432 56.252 47.432C55.484 47.432 54.824 47.216 54.272 46.784C53.744 46.352 53.444 45.788 53.372 45.092C51.428 46.676 49.664 47.468 48.08 47.468C47.24 47.468 46.544 47.192 45.992 46.64C45.464 46.088 45.2 45.308 45.2 44.3Z" fill="white"/>
</svg>
